<?xml version="1.0" encoding="UTF-8"?><svg id="a" xmlns="http://www.w3.org/2000/svg" width="401.89" height="243.74" viewBox="0 0 401.89 243.74"><path d="M130.73,163.51V21.32h28.47v118.02h29.3v24.17h-57.77Z" fill="#e82020"/><path d="M195.12,163.51V21.32h27.48v142.18h-27.48Z" fill="#e82020"/><path d="M239.81,155.23c-5.74-6.4-8.61-16.72-8.61-30.95v-13.9h27.97v17.71c0,7.06,2.26,10.59,6.79,10.59,2.54,0,4.3-.74,5.3-2.23.99-1.49,1.49-4,1.49-7.53,0-4.63-.55-8.47-1.66-11.5-1.1-3.03-2.51-5.57-4.22-7.61-1.71-2.04-4.77-5.21-9.19-9.52l-12.25-12.25c-9.49-9.27-14.23-19.53-14.23-30.79,0-12.14,2.79-21.38,8.36-27.72,5.57-6.34,13.71-9.52,24.41-9.52,12.8,0,22.01,3.39,27.64,10.18,5.63,6.79,8.44,17.41,8.44,31.86h-28.97l-.17-9.77c0-1.88-.52-3.36-1.57-4.47-1.05-1.1-2.51-1.66-4.39-1.66-2.21,0-3.86.61-4.97,1.82-1.1,1.22-1.66,2.87-1.66,4.97,0,4.63,2.65,9.43,7.95,14.4l16.55,15.89c3.86,3.75,7.06,7.31,9.6,10.68,2.54,3.37,4.58,7.34,6.12,11.92,1.54,4.58,2.32,10.01,2.32,16.3,0,14.01-2.57,24.64-7.7,31.86-5.13,7.23-13.6,10.84-25.41,10.84-12.91,0-22.24-3.2-27.97-9.6Z" fill="#e82020"/><path d="M306.51,163.51l13.74-142.18h48.17l13.57,142.18h-26.98l-1.99-23.01h-17.21l-1.66,23.01h-27.64ZM337.96,117.82h12.91l-6.29-72.33h-1.32l-5.3,72.33Z" fill="#e82020"/><path d="M87.75,223.74v-44.4h17.78v8.58h-8.74v8.63h8.37v8.37h-8.37v10.18h9.3v8.63h-18.35Z" fill="#e82020"/><path d="M110.62,179.34h12.04c3.24,0,5.59.79,7.06,2.38,1.46,1.59,2.2,4.17,2.2,7.75v1.96c0,4.24-1.52,6.77-4.55,7.6,1.86.48,3.17,1.6,3.93,3.36.76,1.76,1.14,4.08,1.14,6.98,0,4.72-.71,8.3-2.12,10.73-1.41,2.43-3.96,3.64-7.65,3.64h-12.04v-44.4ZM121.11,196.03c.76,0,1.27-.28,1.55-.85.28-.57.41-1.37.41-2.4v-4.45c0-1.45-.64-2.17-1.91-2.17h-1.86v9.87h1.81ZM123.65,212.63v-5.53c0-1.34-.2-2.36-.59-3.05-.4-.69-1.09-1.03-2.09-1.03h-1.65v12.87l.88.05c2.31,0,3.46-1.1,3.46-3.31Z" fill="#e82020"/><path d="M205.78,223.74l4.29-44.4h15.04l4.24,44.4h-8.43l-.62-7.19h-5.38l-.52,7.19h-8.63ZM215.6,209.47h4.03l-1.96-22.59h-.41l-1.65,22.59Z" fill="#e82020"/><path d="M232.04,179.34h13.65c2.17,0,3.85.49,5.04,1.47,1.19.98,1.99,2.36,2.4,4.14.41,1.78.62,4.04.62,6.8,0,2.52-.33,4.48-.98,5.89-.66,1.41-1.79,2.4-3.41,2.95,1.34.28,2.32.95,2.92,2.02.6,1.07.9,2.52.9,4.34l-.1,16.8h-8.68v-17.37c0-1.24-.24-2.03-.72-2.38-.48-.34-1.36-.52-2.64-.52v20.26h-8.99v-44.4ZM243.2,195.78c1.24,0,1.86-1.34,1.86-4.03,0-1.17-.05-2.05-.16-2.64-.1-.59-.29-.99-.57-1.21-.28-.22-.67-.34-1.19-.34h-2.07v8.22h2.12Z" fill="#e82020"/><path d="M256.69,223.74v-44.4h8.79v17.78l4.14-17.78h8.94l-4.96,20.31,6,24.09h-9.2l-4.86-21.5v21.5h-8.84Z" fill="#e82020"/><path d="M281.09,223.74v-44.4h17.78v8.58h-8.74v8.63h8.37v8.37h-8.37v10.18h9.3v8.63h-18.35Z" fill="#e82020"/><path d="M306.21,223.74v-35.87h-5.27v-8.53h19.44v8.53h-5.27v35.87h-8.89Z" fill="#e82020"/><path d="M322.44,223.74v-44.4h8.58v44.4h-8.58Z" fill="#e82020"/><path d="M334.59,223.74v-44.4h9.15l4.08,21.25v-21.25h8.58v44.4h-8.68l-4.45-22.23v22.23h-8.68Z" fill="#e82020"/><path d="M362.32,220.77c-1.57-2.26-2.35-5.68-2.35-10.26v-19.13c0-4.1.91-7.2,2.74-9.3,1.83-2.1,4.55-3.15,8.17-3.15,2.93,0,5.2.59,6.82,1.76,1.62,1.17,2.74,2.88,3.36,5.12.62,2.24.93,5.12.93,8.63h-8.68v-3.98c0-1.07-.15-1.89-.44-2.48-.29-.59-.82-.88-1.58-.88-1.69,0-2.53,1.1-2.53,3.31v21.5c0,1.34.17,2.36.52,3.05.34.69.95,1.03,1.81,1.03s1.46-.34,1.81-1.03c.34-.69.52-1.71.52-3.05v-6.36h-2.38v-7.65h10.86v25.85h-3.57l-1.5-3.72c-1.59,2.76-4.03,4.14-7.34,4.14s-5.59-1.13-7.16-3.39Z" fill="#e82020"/><path d="M20,43.06l97.51-18.86v34.44l-61.53,9.84,61.53,9.84v32.8l-61.53,9.43,61.53,9.43v34.85l-97.51-19.27v-42.23l47-8.82-47-8.4v-43.05Z" fill="#e82020"/><path d="M28.59,223.74l-8.59-44.4h15.68l4.48,28.02,4.48-28.02h14.94l4.29,28.02,4.29-28.02h15.87l-8.77,44.4h-19.23l-4.01-21.4-3.83,21.4h-19.6Z" fill="#e82020"/><path d="M194.56,179.34l8.59,44.4h-15.68l-4.48-28.02-4.48,28.02h-14.94l-4.29-28.02-4.29,28.02h-15.87l8.77-44.4h19.23l4.01,21.4,3.83-21.4h19.6Z" fill="#e82020"/></svg>