<?xml version="1.0" encoding="UTF-8"?><svg id="a" xmlns="http://www.w3.org/2000/svg" width="241.83" height="180.63" viewBox="0 0 241.83 180.63"><path d="M20,38.86l97.51-18.86v34.44l-61.53,9.84,61.53,9.84v32.8l-61.53,9.43,61.53,9.43v34.85l-97.51-19.27v-42.23l47-8.82-47-8.4v-43.05Z" fill="#e82020"/><path d="M139.96,85.56l-12.68-65.56h23.15l6.62,41.36,6.62-41.36h22.05l6.34,41.36,6.34-41.36h23.43l-12.96,65.56h-28.39l-5.93-31.6-5.65,31.6h-28.94Z" fill="#e82020"/><path d="M209.15,95.07l12.68,65.56h-23.15l-6.62-41.36-6.62,41.36h-22.05l-6.34-41.36-6.34,41.36h-23.43l12.96-65.56h28.39l5.93,31.6,5.65-31.6h28.94Z" fill="#e82020"/></svg>